<svg width="32" height="32" viewBox="0 0 32 32" fill="none"
  xmlns="http://www.w3.org/2000/svg">
  <rect width="32" height="32" rx="5" fill="black"/>
  <path d="M22.364 9.63604C23.6226 10.8947 24.4798 12.4984 24.8271 14.2442C25.1743 15.99 24.9961 17.7996 24.3149 19.4442C23.6337 21.0887 22.4802 22.4943 21.0001 23.4832C19.5201 24.4722 17.78 25 16 25C14.22 25 12.4799 24.4722 10.9999 23.4832C9.51982 22.4943 8.36627 21.0887 7.68508 19.4441C7.0039 17.7996 6.82567 15.99 7.17293 14.2442C7.5202 12.4984 8.37737 10.8947 9.63604 9.63604L16 16L22.364 9.63604Z" fill="white"/>
  <circle cx="16" cy="16" r="9" stroke="white" stroke-width="2"/>
</svg>
